<svg xmlns="http://www.w3.org/2000/svg" viewBox="0 0 512 512">
  <path fill="#F38020" d="M407.906 319.913l-20.8-5.8c-2-0.6-4.1 0.7-4.7 2.7c-8.5 28.6-34.8 48.2-64.9 48.2h-156.3c-2.5 0-4.6 2.1-4.6 4.6v27.3c0 2.5 2.1 4.6 4.6 4.6h156.3c46.4 0 86.9-28.5 103.3-71.4c1.5-3.8-0.4-8-4.2-9.5l-8.7-0.7z"/>
  <path fill="#FAAE40" d="M475.4 304.2l-4.9-16.3c-0.9-2.9-3.6-4.8-6.6-4.8h-77.8c-2.5 0-4.6 2.1-4.6 4.6v27.3c0 2.5 2.1 4.6 4.6 4.6h68.8c3.9 0 7.1-3.2 7.1-7.1c0-0.5 0-1-0.1-1.5l-0.5-1.8c-0.5-1.6 0.4-3.3 2-3.8l7.4-2.1c2.9-0.8 4.6-3.9 3.8-6.8l-0.2-0.3z"/>
  <path fill="#F38020" d="M140.3 266.3h-85.8c-9.2 0-17.3 6.2-19.6 15.1l-11.8 45.3c-3.1 11.9 5.4 23.6 17.7 23.6h99.5c2.5 0 4.6-2.1 4.6-4.6v-74.8c0-2.5-2.1-4.6-4.6-4.6z"/>
  <path fill="#F38020" d="M359.9 211.2c-3.4-11.6-13.8-19.5-25.9-19.5h-177.5c-2.5 0-4.6 2.1-4.6 4.6v69.9c0 2.5 2.1 4.6 4.6 4.6h177.5c9.2 0 17.3-6.2 19.6-15.1l11.8-45.3c1.5-5.8 0.7-11.8-2.5-17.2l-3-2z"/>
</svg>
